<svg width="24" height="20" viewBox="0 0 24 20" fill="currentColor" xmlns="http://www.w3.org/2000/svg">
<path fill-rule="evenodd" clip-rule="evenodd" d="M7.58058 7.36061C8.75269 6.18851 10.3424 5.53003 12 5.53003C13.6576 5.53003 15.2473 6.18851 16.4194 7.36061C17.5915 8.53271 18.25 10.1224 18.25 11.78C18.25 12.1942 17.9142 12.53 17.5 12.53C17.0858 12.53 16.75 12.1942 16.75 11.78C16.75 10.5203 16.2496 9.31207 15.3588 8.42127C14.468 7.53047 13.2598 7.03003 12 7.03003C10.7402 7.03003 9.53204 7.53047 8.64124 8.42127C7.75045 9.31207 7.25 10.5203 7.25 11.78C7.25 12.1942 6.91421 12.53 6.5 12.53C6.08579 12.53 5.75 12.1942 5.75 11.78C5.75 10.1224 6.40848 8.53271 7.58058 7.36061Z" />
<path fill-rule="evenodd" clip-rule="evenodd" d="M11.1204 13.0351C11.6079 12.5483 12.3975 12.5483 12.885 13.0351L12.6952 13.2252L12.885 13.0351L15.005 15.1515C15.2981 15.4442 15.2985 15.9191 15.0059 16.2122C14.7132 16.5053 14.2384 16.5057 13.9452 16.2131L12.7574 15.0272L12.7574 19.2216C12.7574 19.6358 12.4216 19.9716 12.0074 19.9716C11.5931 19.9716 11.2574 19.6358 11.2574 19.2216L11.2574 15.0179L10.0602 16.2131C9.76703 16.5057 9.29216 16.5053 8.9995 16.2122C8.70685 15.9191 8.70725 15.4442 9.00038 15.1515L11.1204 13.0351Z" />
<path fill-rule="evenodd" clip-rule="evenodd" d="M12 0.0300293C12.4142 0.0300293 12.75 0.365816 12.75 0.780029V2.68671C12.75 3.10093 12.4142 3.43671 12 3.43671C11.5858 3.43671 11.25 3.10093 11.25 2.68671V0.780029C11.25 0.365816 11.5858 0.0300293 12 0.0300293ZM20.2303 3.54971C20.5232 3.84261 20.5232 4.31748 20.2303 4.61037L18.9562 5.88454C18.6633 6.17743 18.1884 6.17743 17.8955 5.88454C17.6026 5.59165 17.6026 5.11677 17.8955 4.82388L19.1697 3.54971C19.4626 3.25682 19.9374 3.25682 20.2303 3.54971ZM3.76967 3.54972C4.06256 3.25682 4.53744 3.25682 4.83033 3.54972L6.1045 4.82388C6.39739 5.11677 6.39739 5.59165 6.1045 5.88454C5.8116 6.17743 5.33673 6.17743 5.04384 5.88454L3.76967 4.61038C3.47678 4.31748 3.47678 3.84261 3.76967 3.54972ZM0.25 11.78C0.25 11.3658 0.585786 11.03 1 11.03H2.83333C3.24755 11.03 3.58333 11.3658 3.58333 11.78C3.58333 12.1943 3.24755 12.53 2.83333 12.53H1C0.585786 12.53 0.25 12.1943 0.25 11.78ZM20.4167 11.78C20.4167 11.3658 20.7525 11.03 21.1667 11.03H23C23.4142 11.03 23.75 11.3658 23.75 11.78C23.75 12.1943 23.4142 12.53 23 12.53H21.1667C20.7525 12.53 20.4167 12.1943 20.4167 11.78Z" />
</svg>
