<svg width="10" height="22" viewBox="0 0 10 22" fill="currentColor"
    xmlns="http://www.w3.org/2000/svg">
    <path fill-rule="evenodd" clip-rule="evenodd" d="M2.06762 3.73529C2.06762 2.08656 3.40418 0.75 5.05291 0.75C6.70165 0.75 8.03821 2.08656 8.03821 3.73529V14.3324C8.52272 14.8463 8.86788 15.4783 9.03736 16.1682C9.23603 16.9769 9.18392 17.8269 8.88795 18.6053C8.59199 19.3837 8.06618 20.0535 7.3804 20.5259C6.69461 20.9983 5.88132 21.2509 5.04858 21.25C4.21584 21.2491 3.40308 20.9949 2.71829 20.521C2.0335 20.0472 1.5091 19.3762 1.21477 18.5972C0.920446 17.8182 0.870123 16.9681 1.07049 16.1598C1.24074 15.4731 1.58511 14.8442 2.06762 14.3324V3.73529ZM3.56101 14.4529C3.62617 14.7156 3.54649 15.0047 3.32961 15.1963C2.93368 15.546 2.65354 16.008 2.52642 16.5208C2.39931 17.0335 2.43123 17.5729 2.61796 18.0671C2.80468 18.5613 3.13736 18.9869 3.5718 19.2875C4.00623 19.5881 4.52186 19.7494 5.05016 19.75C5.57845 19.7506 6.09441 19.5903 6.52948 19.2907C6.96455 18.991 7.29812 18.566 7.48589 18.0722C7.67365 17.5784 7.70671 17.0391 7.58067 16.5261C7.45464 16.013 7.17547 15.5505 6.78027 15.1999C6.56748 15.0111 6.48745 14.7284 6.54721 14.4695C6.54128 14.4315 6.53821 14.3926 6.53821 14.3529V3.73529C6.53821 2.91499 5.87322 2.25 5.05291 2.25C4.23261 2.25 3.56762 2.91499 3.56762 3.73529V14.3529C3.56762 14.3868 3.56537 14.4202 3.56101 14.4529Z" />
    <path fill-rule="evenodd" clip-rule="evenodd" d="M3.6499 17.4C3.6499 16.6268 4.2767 16 5.0499 16H5.0599C5.8331 16 6.4599 16.6268 6.4599 17.4C6.4599 18.1732 5.8331 18.8 5.0599 18.8H5.0499C4.2767 18.8 3.6499 18.1732 3.6499 17.4Z" />
    <path fill-rule="evenodd" clip-rule="evenodd" d="M5.07996 8.25C5.49417 8.25 5.82996 8.58579 5.82996 9V17.5C5.82996 17.9142 5.49417 18.25 5.07996 18.25C4.66574 18.25 4.32996 17.9142 4.32996 17.5V9C4.32996 8.58579 4.66574 8.25 5.07996 8.25Z" />
</svg>