<svg width="20" height="18" viewBox="0 0 20 18" fill="currentColor" xmlns="http://www.w3.org/2000/svg">
<path fill-rule="evenodd" clip-rule="evenodd" d="M13.8482 6.824C13.8482 5.16775 15.1209 3.73221 16.7991 3.73221C18.4657 3.73221 19.75 5.15531 19.75 6.824C19.75 8.48025 18.4773 9.91579 16.7991 9.91579H12.4546C12.0404 9.91579 11.7046 9.58001 11.7046 9.16579C11.7046 8.75158 12.0404 8.41579 12.4546 8.41579H16.7991C17.5591 8.41579 18.25 7.74459 18.25 6.824C18.25 5.89844 17.5544 5.23221 16.7991 5.23221C16.0392 5.23221 15.3482 5.90341 15.3482 6.824C15.3482 7.23821 15.0124 7.574 14.5982 7.574C14.184 7.574 13.8482 7.23821 13.8482 6.824Z" />
<path fill-rule="evenodd" clip-rule="evenodd" d="M6.20231 4.04694C6.20231 2.03213 7.69344 0.25 9.70345 0.25C11.6998 0.25 13.2046 2.01701 13.2046 4.04694C13.2046 6.06175 11.7135 7.84388 9.70345 7.84388H3.45459C3.04038 7.84388 2.70459 7.5081 2.70459 7.09388C2.70459 6.67967 3.04038 6.34388 3.45459 6.34388H9.70345C10.7412 6.34388 11.7046 5.3849 11.7046 4.04694C11.7046 2.70145 10.7344 1.75 9.70345 1.75C8.66573 1.75 7.70231 2.70898 7.70231 4.04694C7.70231 4.46116 7.36652 4.79694 6.95231 4.79694C6.5381 4.79694 6.20231 4.46116 6.20231 4.04694Z" />
<path fill-rule="evenodd" clip-rule="evenodd" d="M6.20227 14.0583C6.20227 16.0731 7.6934 17.8553 9.7034 17.8553C11.6998 17.8553 13.2045 16.0882 13.2045 14.0583C13.2045 12.0435 11.7134 10.2614 9.7034 10.2614H1C0.585786 10.2614 0.25 10.5972 0.25 11.0114C0.25 11.4256 0.585786 11.7614 1 11.7614H9.7034C10.7411 11.7614 11.7045 12.7204 11.7045 14.0583C11.7045 15.4038 10.7343 16.3553 9.7034 16.3553C8.66568 16.3553 7.70227 15.3963 7.70227 14.0583C7.70227 13.6441 7.36648 13.3083 6.95227 13.3083C6.53805 13.3083 6.20227 13.6441 6.20227 14.0583Z" />
</svg>
