<svg width="22" height="16" viewBox="0 0 22 16" fill="currentColor"
    xmlns="http://www.w3.org/2000/svg">
    <path fill-rule="evenodd" clip-rule="evenodd" d="M8.96844 2.29901C7.73493 2.89755 6.69529 4.02534 6.22914 5.8778C6.13801 6.23993 5.83881 6.52429 5.4642 6.59049C2.72703 7.0742 1.54931 9.12563 1.77815 10.91C1.89367 11.8107 2.36694 12.6806 3.23581 13.3113C4.1066 13.9434 5.42111 14.3664 7.25419 14.2672C8.5058 14.1994 11.256 14.234 13.6194 14.2638C14.7618 14.2782 15.8137 14.2915 16.5624 14.2915H16.5838L16.6052 14.2927C17.9591 14.3702 18.8482 14.0454 19.3946 13.6067C19.9395 13.1691 20.2123 12.5648 20.2464 11.9357C20.3159 10.6527 19.4061 9.34556 17.7758 9.28231C17.1102 9.25649 16.6751 8.5782 16.905 7.96802C17.4797 6.44206 17.2187 5.14819 16.5111 4.13765C15.7848 3.10041 14.552 2.31749 13.142 1.96031C11.7349 1.60385 10.2233 1.69008 8.96844 2.29901ZM18.5138 7.86053C18.9808 6.11831 18.6229 4.53835 17.7398 3.27724C16.769 1.89096 15.1988 0.933945 13.5104 0.506238C11.8191 0.0778083 9.93704 0.161737 8.3136 0.949493C6.75005 1.70819 5.47696 3.09695 4.86458 5.18108C1.61421 5.90837 -0.0357978 8.5578 0.290338 11.1008C0.457879 12.4072 1.14765 13.6491 2.35467 14.5252C3.55976 15.4 5.23397 15.8787 7.33529 15.765C8.53813 15.6998 11.1668 15.7332 13.4971 15.7627C14.6565 15.7775 15.7421 15.7912 16.5414 15.7915C18.1608 15.8801 19.436 15.4972 20.3338 14.7762C21.2371 14.0509 21.6889 13.0372 21.7442 12.0169C21.8434 10.1864 20.655 8.27187 18.5138 7.86053Z"/>
</svg>
