<svg width="22" height="18" viewBox="0 0 22 18" fill="currentColor"
    xmlns="http://www.w3.org/2000/svg">
    <path fill-rule="evenodd" clip-rule="evenodd" d="M10.2128 2.24804C9.12702 2.78914 8.20088 3.81291 7.78248 5.51152C7.69483 5.86736 7.40407 6.15806 7.02385 6.22789C4.51097 6.68937 3.47634 8.69749 3.81174 10.3895C3.89227 10.7958 3.62819 11.1905 3.22188 11.271C2.81557 11.3515 2.4209 11.0875 2.34036 10.6811C1.85607 8.23798 3.3273 5.55474 6.41426 4.82364C6.97214 2.90359 8.1223 1.6139 9.54371 0.905523C11.0244 0.167612 12.7388 0.0892645 14.2771 0.488556C15.8131 0.887235 17.241 1.77977 18.1256 3.07164C18.9252 4.23935 19.2538 5.69811 18.8491 7.30543C20.7893 7.72385 21.8391 9.52283 21.744 11.2068C21.6904 12.1561 21.2781 13.1044 20.449 13.7856C19.6237 14.4637 18.456 14.8206 16.9846 14.7384C16.4284 14.7382 15.9199 14.73 15.2878 14.7199C14.9114 14.7139 14.4911 14.7071 13.9908 14.701C13.5766 14.6959 13.245 14.356 13.2501 13.9418C13.2552 13.5276 13.5951 13.196 14.0093 13.2011C14.5255 13.2074 14.9513 13.2143 15.3286 13.2203C15.9579 13.2304 16.4523 13.2384 17.0062 13.2384H17.0282L17.0502 13.2397C18.2467 13.31 19.0229 13.016 19.4968 12.6266C19.9711 12.2369 20.2141 11.6945 20.2464 11.1222C20.3129 9.94492 19.508 8.78511 18.1167 8.71829C17.463 8.68689 17.0275 8.02376 17.2485 7.41397C17.7542 6.01831 17.5172 4.83802 16.8879 3.91912C16.2421 2.97599 15.1492 2.26462 13.9003 1.94045C12.6537 1.61688 11.319 1.69673 10.2128 2.24804Z" />
    <path fill-rule="evenodd" clip-rule="evenodd" d="M6.20452 8.77539C5.4996 9.11797 4.89287 9.76238 4.60923 10.8504C4.51625 11.2071 4.22246 11.4862 3.85466 11.5556C2.26874 11.8551 1.63452 13.038 1.76744 14.0275C1.83491 14.5297 2.09984 15.0168 2.59291 15.3737C3.08777 15.7319 3.85877 15.9901 4.97406 15.9294C5.78135 15.8855 7.55802 15.908 9.07103 15.9271C9.79443 15.9362 10.4576 15.9446 10.9257 15.9446H10.9472L10.9687 15.9458C12.0454 16.0077 12.5681 15.6473 12.7985 15.3108C13.047 14.948 13.0738 14.451 12.8712 14.0248C12.6856 13.6347 12.3177 13.3277 11.768 13.2809C11.1439 13.2278 10.7114 12.5933 10.9208 11.9837C11.2196 11.1141 11.0532 10.3941 10.6434 9.82857C10.2159 9.23868 9.49234 8.78095 8.65221 8.57274C7.81471 8.36517 6.92994 8.42284 6.20452 8.77539ZM12.4952 11.8982C12.7186 10.7801 12.448 9.76267 11.858 8.9484C11.1862 8.02134 10.131 7.39385 9.01305 7.11679C7.89249 6.83907 6.6399 6.89604 5.54887 7.42627C4.51776 7.92737 3.6783 8.82974 3.25027 10.1544C1.13807 10.7007 0.0475199 12.4907 0.280795 14.2272C0.402287 15.1315 0.883155 15.9879 1.71341 16.5888C2.54187 17.1884 3.67171 17.5025 5.05548 17.4272C5.81381 17.386 7.46846 17.4071 8.94823 17.426C9.68905 17.4355 10.386 17.4444 10.9048 17.4446C12.3539 17.5222 13.4398 17.0291 14.0361 16.1585C14.6174 15.3097 14.6335 14.238 14.2258 13.3806C13.9022 12.7003 13.3047 12.1374 12.4952 11.8982Z" />
</svg>
