<svg width="24" height="20" viewBox="0 0 24 20" fill="currentColor" xmlns="http://www.w3.org/2000/svg">
<path fill-rule="evenodd" clip-rule="evenodd" d="M12.5348 7.66346C11.4859 8.16519 10.6015 9.10757 10.2007 10.661C10.1078 11.0209 9.8095 11.3026 9.43681 11.3687C7.09497 11.7834 6.12071 13.506 6.31389 14.9721C6.41179 15.7151 6.80886 16.4372 7.5458 16.9638C8.28526 17.4922 9.41107 17.8528 10.995 17.7682C12.0905 17.7097 14.4984 17.7396 16.5635 17.7653C17.5592 17.7776 18.4751 17.789 19.1258 17.789H19.1469L19.168 17.7902C20.3306 17.8558 21.0824 17.5813 21.5374 17.2233C21.99 16.8674 22.2153 16.3789 22.2462 15.8705C22.3095 14.8312 21.5702 13.7541 20.2142 13.6862C19.5533 13.6531 19.1247 12.9794 19.3508 12.3724C19.8232 11.1037 19.5955 10.036 18.9944 9.19912C18.3738 8.33506 17.3203 7.67614 16.1081 7.37565C14.899 7.07593 13.6053 7.15147 12.5348 7.66346ZM20.9497 12.275C21.3245 10.7744 20.9939 9.41164 20.2128 8.32407C19.3447 7.11548 17.9546 6.28797 16.469 5.91972C14.9803 5.55071 13.3222 5.62412 11.8876 6.31028C10.5134 6.96756 9.39061 8.16688 8.84039 9.95961C5.99667 10.6124 4.53118 12.9248 4.82674 15.168C4.9789 16.3229 5.59859 17.4159 6.67369 18.1842C7.74628 18.9507 9.22778 19.3647 11.075 19.2661C12.1224 19.2101 14.4105 19.2388 16.4429 19.2642C17.4554 19.2769 18.4045 19.2888 19.1051 19.289C20.5273 19.3653 21.6597 19.0356 22.4648 18.4023C23.2766 17.7637 23.6883 16.8675 23.7435 15.9616C23.8413 14.3537 22.8075 12.6805 20.9497 12.275Z" />
<path fill-rule="evenodd" clip-rule="evenodd" d="M4.72572 0.745524C5.11481 0.60346 5.5454 0.803714 5.68746 1.1928L6.08953 2.29401C6.2316 2.6831 6.03134 3.11369 5.64226 3.25575C5.25317 3.39782 4.82258 3.19756 4.68052 2.80847L4.27844 1.70726C4.13638 1.31817 4.33663 0.887589 4.72572 0.745524ZM10.4031 1.03741C10.7797 1.20998 10.9451 1.65513 10.7725 2.03168L10.3111 3.03842C10.1386 3.41498 9.69342 3.58034 9.31686 3.40778C8.94031 3.23521 8.77494 2.79006 8.94751 2.41351L9.40887 1.40677C9.58144 1.03021 10.0266 0.864845 10.4031 1.03741ZM9.1844 5.97776C8.48686 5.24474 7.40346 4.95888 6.4036 5.32982C5.05409 5.83047 4.35527 7.34436 4.85574 8.71505C4.96097 9.00325 5.10993 9.26024 5.29156 9.48229C5.55382 9.8029 5.50651 10.2754 5.1859 10.5377C4.86528 10.7999 4.39277 10.7526 4.13051 10.432C3.84362 10.0813 3.61028 9.67746 3.44672 9.22951C2.66609 7.0915 3.75052 4.71418 5.88186 3.92348C7.46648 3.3356 9.17676 3.79379 10.271 4.94373C10.5566 5.2438 10.5448 5.71853 10.2447 6.00407C9.94467 6.28961 9.46994 6.27783 9.1844 5.97776ZM0.587101 4.67611C0.761949 4.30061 1.2081 4.13795 1.5836 4.3128L2.58234 4.77786C2.95784 4.9527 3.1205 5.39885 2.94565 5.77435C2.77081 6.14985 2.32466 6.31251 1.94916 6.13767L0.950414 5.67261C0.574913 5.49776 0.412252 5.05161 0.587101 4.67611ZM2.75357 9.49075C2.89764 9.8791 2.69962 10.3107 2.31126 10.4548L1.26083 10.8445C0.872477 10.9886 0.440863 10.7905 0.296789 10.4022C0.152716 10.0138 0.350742 9.58222 0.739092 9.43815L1.78953 9.04845C2.17788 8.90437 2.60949 9.1024 2.75357 9.49075Z" />
</svg>
