<svg width="21" height="18" viewBox="0 0 21 18" fill="currentColor"
    xmlns="http://www.w3.org/2000/svg">
    <path fill-rule="evenodd" clip-rule="evenodd" d="M11.2265 7.68568C11.7712 7.59138 12.2968 7.89558 12.4863 8.41527C12.6696 8.91473 13.0068 9.95312 13.1401 11.1516C13.2719 12.337 13.216 13.7826 12.5029 15.0132C11.3453 17.0176 8.83314 17.8556 6.85734 16.7149C4.88091 15.5738 4.35417 12.9756 5.50979 10.9721C6.22339 9.72279 7.44355 8.94929 8.53602 8.47274C9.63801 7.99204 10.7018 7.77357 11.2265 7.68568ZM12.5029 15.0132C12.5028 15.0134 12.5027 15.0136 12.5026 15.0138L11.8537 14.6377L12.5032 15.0127C12.5031 15.0128 12.503 15.013 12.5029 15.0132ZM11.1784 9.21937C10.6728 9.31991 9.90912 9.51028 9.13576 9.84763C8.17821 10.2653 7.29559 10.8691 6.81165 11.7172L6.80978 11.7205C6.01111 13.1038 6.44115 14.7425 7.60734 15.4158C8.77454 16.0897 10.4062 15.6449 11.2042 14.2627L11.2049 14.2616C11.6854 13.4325 11.7657 12.3648 11.6492 11.3174C11.5554 10.4738 11.3415 9.71032 11.1784 9.21937Z" />
    <path fill-rule="evenodd" clip-rule="evenodd" d="M19.9687 4.81268C20.0966 5.16105 20.3318 5.88494 20.4251 6.72369C20.5169 7.54938 20.483 8.59002 19.9624 9.48881C19.1198 10.9478 17.275 11.5792 15.8054 10.7308C14.3352 9.88198 13.9625 7.96644 14.8032 6.50847C15.3239 5.59715 16.2053 5.04557 16.9675 4.71308C17.7393 4.3764 18.4815 4.22415 18.8473 4.16283C19.3314 4.07935 19.8003 4.35084 19.9687 4.81268ZM19.9624 9.48881C19.9622 9.48907 19.9621 9.48933 19.9619 9.48959L19.313 9.11348L19.9625 9.48848C19.9625 9.48859 19.9624 9.4887 19.9624 9.48881ZM18.691 5.72301C18.7842 6.03439 18.8849 6.44568 18.9343 6.88948C19.0108 7.57726 18.9524 8.24007 18.6641 8.73737L18.6635 8.73848C18.1804 9.57518 17.2163 9.81332 16.5554 9.43174C15.8955 9.05073 15.6195 8.09461 16.1032 7.25684L16.105 7.25356C16.3961 6.7435 16.9399 6.36159 17.5672 6.08797C17.9731 5.91092 18.3763 5.79561 18.691 5.72301ZM18.5594 5.32615L18.5602 5.32851C18.5599 5.32773 18.5597 5.32694 18.5594 5.32615Z" />
    <path fill-rule="evenodd" clip-rule="evenodd" d="M6.55486 1.45244C6.70217 1.85382 6.97316 2.68805 7.08047 3.653C7.18634 4.60497 7.14469 5.78779 6.55641 6.80306C5.60324 8.45325 3.52442 9.15703 1.8773 8.20607C0.229525 7.25473 -0.197212 5.09969 0.753944 3.45033C1.34234 2.42042 2.34256 1.79098 3.22064 1.40795C4.10831 1.02074 4.96335 0.845257 5.38489 0.774616C5.89028 0.687338 6.37903 0.9703 6.55486 1.45244ZM6.55641 6.80306C6.55632 6.80321 6.55623 6.80337 6.55614 6.80352L5.90726 6.42742L6.55678 6.80242C6.55666 6.80263 6.55654 6.80284 6.55641 6.80306ZM5.26719 2.32438C5.38623 2.70344 5.52498 3.23712 5.58966 3.81879C5.68018 4.63276 5.6141 5.43761 5.25838 6.05131L5.25774 6.05242C4.66417 7.08052 3.46585 7.39117 2.6273 6.90703C1.78976 6.42348 1.45973 5.22786 2.05394 4.19869L2.05581 4.19541C2.41454 3.56677 3.07724 3.107 3.82038 2.78283C4.35299 2.55051 4.8808 2.40795 5.26719 2.32438Z" />
</svg>
