<svg width="20" height="14" viewBox="0 0 20 14" fill="currentColor"
    xmlns="http://www.w3.org/2000/svg">
    <path fill-rule="evenodd" clip-rule="evenodd" d="M14.5999 7.03086C13.1751 6.62058 11.6447 6.80677 10.3598 7.54674C8.62382 8.54648 6.53631 8.7332 4.65046 8.05744L2.26491 7.20262C1.91126 7.07589 1.72729 6.68646 1.85402 6.33281C1.98075 5.97915 2.37017 5.79519 2.72383 5.92192L5.10938 6.77674C6.61939 7.31782 8.29086 7.16831 9.68087 6.36781C11.2856 5.44368 13.1969 5.21113 14.9764 5.72353L17.194 6.36209C17.555 6.46604 17.7634 6.84296 17.6594 7.20397C17.5555 7.56497 17.1785 7.77336 16.8175 7.66941L14.5999 7.03086Z"/>
    <path fill-rule="evenodd" clip-rule="evenodd" d="M15.7878 12.4559C13.9809 12.039 12.0614 12.2426 10.373 13.0191C8.25559 13.9929 5.832 14.1884 3.58747 13.545L0.49295 12.6579C0.13182 12.5544 -0.0770116 12.1777 0.0265124 11.8166C0.130036 11.4554 0.506713 11.2466 0.867843 11.3501L3.96236 12.2372C5.88985 12.7898 7.97895 12.6227 9.80458 11.7831C11.7629 10.8825 13.9896 10.6448 16.0937 11.1303L18.9726 11.7947C19.3386 11.8792 19.5669 12.2444 19.4824 12.6105C19.398 12.9765 19.0327 13.2048 18.6667 13.1203L15.7878 12.4559Z"/>
    <path fill-rule="evenodd" clip-rule="evenodd" d="M15.7878 1.57243C13.9809 1.15544 12.0614 1.35912 10.373 2.1356C8.25559 3.10939 5.832 3.30491 3.58747 2.66148L0.49295 1.77439C0.13182 1.67086 -0.0770116 1.29418 0.0265124 0.933055C0.130036 0.571924 0.506713 0.363093 0.867843 0.466617L3.96236 1.35371C5.88985 1.90626 7.97895 1.7392 9.80458 0.899605C11.7629 -0.00100976 13.9896 -0.238738 16.0937 0.246831L18.9726 0.911181C19.3386 0.995655 19.5669 1.36088 19.4824 1.72694C19.398 2.09299 19.0327 2.32126 18.6667 2.23678L15.7878 1.57243Z"/>
</svg>