<svg width="20" height="20" viewBox="0 0 20 20" fill="currentColor" xmlns="http://www.w3.org/2000/svg">
<path fill-rule="evenodd" clip-rule="evenodd" d="M8.21464 2.401C7.12927 2.94567 6.20155 3.97737 5.78251 5.69127C5.69383 6.05394 5.39692 6.34008 5.02327 6.40928C2.62163 6.85407 1.56833 8.72581 1.77558 10.3814C1.87976 11.2137 2.30232 12.0102 3.06802 12.5846C3.83404 13.1593 4.99419 13.5479 6.62324 13.4566C7.75301 13.3933 10.2365 13.4257 12.3657 13.4534C13.3919 13.4668 14.3358 13.4791 15.0061 13.4791H15.0283L15.0504 13.4804C16.2457 13.5512 17.021 13.2555 17.4948 12.8634C17.9696 12.4706 18.2138 11.9226 18.2463 11.3432C18.3131 10.1499 17.503 8.98367 16.1157 8.91688C15.4636 8.88548 15.0272 8.22447 15.247 7.61433C15.7548 6.20521 15.5174 5.01289 14.8872 4.08547C14.2409 3.13434 13.1477 2.41806 11.8997 2.09171C10.6539 1.76595 9.32027 1.84617 8.21464 2.401ZM16.8475 7.50417C17.2541 5.88634 16.9268 4.41819 16.1278 3.24239C15.2442 1.94207 13.8165 1.04252 12.2792 0.640509C10.7396 0.237904 9.02361 0.316769 7.54187 1.06034C6.11926 1.77423 4.96993 3.07328 4.41305 5.00564C1.46322 5.70902 -0.00870344 8.20398 0.287195 10.5677C0.440119 11.7894 1.06543 12.9574 2.16784 13.7845C3.26994 14.6113 4.79814 15.0612 6.70717 14.9542C7.78647 14.8938 10.1442 14.9247 12.2391 14.9523C13.2831 14.966 14.2617 14.9788 14.9844 14.9791C16.4572 15.062 17.6257 14.7021 18.4511 14.0191C19.2797 13.3334 19.6906 12.3801 19.7439 11.4271C19.8385 9.7376 18.7918 7.92469 16.8475 7.50417Z" />
<path fill-rule="evenodd" clip-rule="evenodd" d="M6.67077 15.8348C7.03032 16.0404 7.15506 16.4986 6.94939 16.8582L5.83912 18.7991C5.63345 19.1587 5.17525 19.2834 4.81571 19.0777C4.45616 18.8721 4.33142 18.4139 4.53709 18.0543L5.64736 16.1134C5.85303 15.7538 6.31122 15.6291 6.67077 15.8348Z" />
<path fill-rule="evenodd" clip-rule="evenodd" d="M12.2709 15.9349C12.6304 16.1405 12.7552 16.5987 12.5495 16.9583L11.4392 18.8992C11.2335 19.2588 10.7753 19.3835 10.4158 19.1778C10.0563 18.9722 9.93152 18.514 10.1372 18.1544L11.2475 16.2135C11.4531 15.8539 11.9113 15.7292 12.2709 15.9349Z" />
<path fill-rule="evenodd" clip-rule="evenodd" d="M8.88956 17.0879C9.25096 17.2903 9.37985 17.7473 9.17745 18.1087L8.63114 19.0842C8.42874 19.4456 7.97169 19.5745 7.6103 19.3721C7.2489 19.1697 7.12001 18.7126 7.32241 18.3512L7.86872 17.3758C8.07112 17.0144 8.52817 16.8855 8.88956 17.0879Z" />
<path fill-rule="evenodd" clip-rule="evenodd" d="M14.7659 17.199C15.1273 17.4014 15.2562 17.8584 15.0538 18.2198L14.5075 19.1953C14.3051 19.5567 13.848 19.6856 13.4866 19.4832C13.1252 19.2808 12.9964 18.8237 13.1988 18.4623L13.7451 17.4869C13.9475 17.1255 14.4045 16.9966 14.7659 17.199Z" />
</svg>
