<svg width="20" height="20" viewBox="0 0 20 20" fill="currentColor" xmlns="http://www.w3.org/2000/svg">
<path fill-rule="evenodd" clip-rule="evenodd" d="M4.59998 16.5C4.59998 15.9477 5.04769 15.5 5.59998 15.5H5.60998C6.16226 15.5 6.60998 15.9477 6.60998 16.5C6.60998 17.0523 6.16226 17.5 5.60998 17.5H5.59998C5.04769 17.5 4.59998 17.0523 4.59998 16.5Z" />
<path fill-rule="evenodd" clip-rule="evenodd" d="M9 16.5C9 15.9477 9.44772 15.5 10 15.5H10.01C10.5623 15.5 11.01 15.9477 11.01 16.5C11.01 17.0523 10.5623 17.5 10.01 17.5H10C9.44772 17.5 9 17.0523 9 16.5Z" />
<path fill-rule="evenodd" clip-rule="evenodd" d="M13.4 16.5C13.4 15.9477 13.8477 15.5 14.4 15.5H14.41C14.9623 15.5 15.41 15.9477 15.41 16.5C15.41 17.0523 14.9623 17.5 14.41 17.5H14.4C13.8477 17.5 13.4 17.0523 13.4 16.5Z" />
<path fill-rule="evenodd" clip-rule="evenodd" d="M11.2 18.7C11.2 18.1477 11.6477 17.7 12.2 17.7H12.21C12.7622 17.7 13.21 18.1477 13.21 18.7C13.21 19.2522 12.7622 19.7 12.21 19.7H12.2C11.6477 19.7 11.2 19.2522 11.2 18.7Z" />
<path fill-rule="evenodd" clip-rule="evenodd" d="M6.79993 18.7C6.79993 18.1477 7.24764 17.7 7.79993 17.7H7.80993C8.36221 17.7 8.80993 18.1477 8.80993 18.7C8.80993 19.2522 8.36221 19.7 7.80993 19.7H7.79993C7.24764 19.7 6.79993 19.2522 6.79993 18.7Z" />
<path fill-rule="evenodd" clip-rule="evenodd" d="M8.21464 2.2511C7.12927 2.79576 6.20155 3.82747 5.78251 5.54137C5.69383 5.90403 5.39692 6.19017 5.02327 6.25937C2.62163 6.70417 1.56833 8.57591 1.77558 10.2315C1.87976 11.0638 2.30232 11.8603 3.06802 12.4347C3.83404 13.0094 4.99419 13.398 6.62324 13.3067C7.75301 13.2434 10.2365 13.2758 12.3657 13.3035C13.3919 13.3169 14.3358 13.3292 15.0061 13.3292H15.0283L15.0504 13.3305C16.2457 13.4013 17.021 13.1056 17.4948 12.7135C17.9696 12.3207 18.2138 11.7727 18.2463 11.1933C18.3131 10 17.503 8.83377 16.1157 8.76698C15.4636 8.73558 15.0272 8.07457 15.247 7.46443C15.7548 6.05531 15.5174 4.86299 14.8872 3.93557C14.2409 2.98444 13.1477 2.26816 11.8997 1.94181C10.6539 1.61604 9.32027 1.69627 8.21464 2.2511ZM16.8475 7.35426C17.2541 5.73644 16.9268 4.26829 16.1278 3.09249C15.2442 1.79217 13.8165 0.892622 12.2792 0.490607C10.7396 0.0880016 9.02361 0.166867 7.54187 0.910435C6.11926 1.62433 4.96993 2.92338 4.41305 4.85574C1.46322 5.55912 -0.00870344 8.05408 0.287195 10.4178C0.440119 11.6395 1.06543 12.8075 2.16784 13.6346C3.26994 14.4614 4.79814 14.9113 6.70717 14.8043C7.78647 14.7439 10.1442 14.7748 12.2391 14.8024C13.2831 14.8161 14.2617 14.8289 14.9844 14.8292C16.4572 14.9121 17.6257 14.5522 18.4511 13.8692C19.2797 13.1835 19.6906 12.2302 19.7439 11.2772C19.8385 9.5877 18.7918 7.77479 16.8475 7.35426Z" />
</svg>
