<svg width="22" height="22" viewBox="0 0 22 22" fill="currentColor" xmlns="http://www.w3.org/2000/svg">
<path fill-rule="evenodd" clip-rule="evenodd" d="M11 0.25C11.4142 0.25 11.75 0.585786 11.75 1V2.73335C11.75 3.14756 11.4142 3.48335 11 3.48335C10.5858 3.48335 10.25 3.14756 10.25 2.73335V1C10.25 0.585786 10.5858 0.25 11 0.25ZM18.5303 3.46968C18.8232 3.76258 18.8232 4.23745 18.5303 4.53034L17.372 5.68868C17.0791 5.98157 16.6042 5.98157 16.3113 5.68868C16.0184 5.39578 16.0184 4.92091 16.3113 4.62802L17.4697 3.46968C17.7626 3.17679 18.2374 3.17679 18.5303 3.46968ZM3.46967 3.46968C3.76256 3.17679 4.23744 3.17679 4.53033 3.46968L5.68866 4.62802C5.98156 4.92091 5.98156 5.39578 5.68866 5.68868C5.39577 5.98157 4.9209 5.98157 4.628 5.68868L3.46967 4.53034C3.17678 4.23745 3.17678 3.76258 3.46967 3.46968ZM0.25 11C0.25 10.5858 0.585786 10.25 1 10.25H2.66667C3.08088 10.25 3.41667 10.5858 3.41667 11C3.41667 11.4142 3.08088 11.75 2.66667 11.75H1C0.585786 11.75 0.25 11.4142 0.25 11ZM18.5833 11C18.5833 10.5858 18.9191 10.25 19.3333 10.25H21C21.4142 10.25 21.75 10.5858 21.75 11C21.75 11.4142 21.4142 11.75 21 11.75H19.3333C18.9191 11.75 18.5833 11.4142 18.5833 11ZM5.68866 16.3113C5.98156 16.6042 5.98156 17.0791 5.68866 17.372L4.447 18.6137C4.1541 18.9066 3.67923 18.9066 3.38634 18.6137C3.09344 18.3208 3.09344 17.8459 3.38634 17.553L4.628 16.3114C4.9209 16.0185 5.39577 16.0185 5.68866 16.3113ZM16.3113 16.3113C16.6042 16.0185 17.0791 16.0185 17.372 16.3114L18.5303 17.4697C18.8232 17.7626 18.8232 18.2374 18.5303 18.5303C18.2374 18.8232 17.7625 18.8232 17.4697 18.5303L16.3113 17.372C16.0184 17.0791 16.0184 16.6042 16.3113 16.3113ZM11 18.5833C11.4142 18.5833 11.75 18.9191 11.75 19.3333V21C11.75 21.4142 11.4142 21.75 11 21.75C10.5858 21.75 10.25 21.4142 10.25 21V19.3333C10.25 18.9191 10.5858 18.5833 11 18.5833Z" />
<path fill-rule="evenodd" clip-rule="evenodd" d="M11 6.75C8.65279 6.75 6.75 8.65279 6.75 11C6.75 13.3472 8.65279 15.25 11 15.25C13.3472 15.25 15.25 13.3472 15.25 11C15.25 8.65279 13.3472 6.75 11 6.75ZM5.25 11C5.25 7.82436 7.82436 5.25 11 5.25C14.1756 5.25 16.75 7.82436 16.75 11C16.75 14.1756 14.1756 16.75 11 16.75C7.82436 16.75 5.25 14.1756 5.25 11Z" />
</svg>
